<?xml version="1.0" standalone="no"?>
<!DOCTYPE svg PUBLIC "-//W3C//DTD SVG 20010904//EN"
 "http://www.w3.org/TR/2001/REC-SVG-20010904/DTD/svg10.dtd">
<svg version="1.0" xmlns="http://www.w3.org/2000/svg"
 width="1052.000000pt" height="1052.000000pt" viewBox="0 0 1052.000000 1052.000000"
 preserveAspectRatio="xMidYMid meet">
<metadata>
Created by potrace 1.11, written by Peter Selinger 2001-2013
</metadata>
<g transform="translate(0.000000,1052.000000) scale(0.100000,-0.100000)"
fill="#000000" stroke="none">
<path d="M3584 7935 c-287 -43 -618 -141 -784 -232 -36 -19 -159 -84 -273
-144 -223 -117 -232 -122 -437 -269 -74 -53 -233 -159 -352 -235 -534 -342
-932 -643 -1069 -807 -48 -58 -99 -147 -99 -175 0 -6 -65 -62 -145 -124 -79
-62 -142 -115 -141 -117 2 -2 30 10 62 26 33 16 107 50 166 76 90 39 110 45
133 36 106 -40 336 24 888 246 1379 557 1728 688 1957 735 135 28 340 30 485
4 541 -95 1202 -443 2051 -1080 283 -213 574 -447 574 -462 0 -7 6 -13 14 -13
26 0 28 -20 2 -31 -13 -6 -22 -17 -20 -23 10 -25 -32 -56 -75 -56 -43 0 -78
-21 -66 -40 3 -5 15 -10 26 -10 19 0 25 -11 12 -23 -3 -4 -12 -2 -18 3 -9 8
-14 6 -19 -5 -3 -8 -12 -15 -21 -15 -8 0 -15 -4 -15 -10 0 -5 -6 -10 -14 -10
-18 0 -28 -27 -12 -33 19 -8 43 9 25 17 -8 3 -3 3 11 0 32 -8 34 -10 26 -29
-4 -11 -13 -14 -30 -9 -13 3 -27 1 -30 -5 -4 -6 1 -12 11 -13 10 -1 25 -2 33
-3 8 -1 25 -6 37 -13 29 -16 43 -15 43 2 0 25 18 27 39 4 27 -29 26 -41 -2
-36 -28 5 -49 -15 -49 -48 0 -13 -5 -27 -9 -30 -15 -9 1 -24 19 -17 14 5 15 3
5 -8 -7 -7 -13 -21 -13 -32 0 -10 -13 -30 -30 -44 -35 -29 -37 -44 -9 -61 23
-14 49 -2 49 24 0 8 6 11 17 7 11 -4 14 -3 9 5 -4 7 -2 12 3 12 17 0 13 -21
-6 -36 -17 -13 -17 -14 0 -8 17 6 18 5 5 -15 -10 -17 -19 -21 -41 -17 -15 3
-26 2 -22 -3 7 -13 -4 -38 -20 -45 -9 -3 -20 7 -29 25 -14 29 -14 30 6 27 12
-2 23 3 26 11 3 9 0 11 -7 7 -7 -4 -19 -2 -27 5 -8 6 -17 9 -21 5 -3 -3 -1 -6
6 -6 7 0 9 -5 6 -10 -4 -6 -11 -8 -16 -4 -5 3 -9 2 -8 -3 5 -30 -4 -33 -18 -5
-12 24 -20 31 -34 27 -13 -4 -43 12 -96 53 -111 83 -240 169 -373 246 -63 36
-116 71 -116 76 -3 23 -5 24 -12 13 -16 -26 -199 88 -303 189 -31 29 -88 69
-126 88 -59 30 -75 43 -103 88 -36 59 -45 63 -30 11 15 -50 15 -49 -52 -49
-54 0 -66 4 -91 28 -29 27 -29 27 -22 3 7 -23 6 -24 -31 -19 -22 3 -75 15
-119 27 -77 21 -81 24 -122 79 -24 31 -57 85 -75 119 -18 35 -36 63 -40 63
-22 0 -4 -75 37 -155 l45 -88 -72 6 c-40 4 -118 20 -172 37 -55 16 -107 30
-116 30 -8 0 -38 22 -65 50 -27 27 -50 48 -52 46 -3 -2 3 -21 12 -41 8 -21 14
-40 11 -42 -8 -8 -105 19 -177 49 -73 31 -78 35 -93 78 -9 25 -18 67 -20 93
-2 27 -6 50 -9 53 -2 3 -15 -8 -27 -23 -19 -24 -21 -37 -17 -83 3 -30 8 -62
12 -71 8 -21 -19 -47 -86 -84 l-51 -27 -24 23 c-25 24 -31 20 -14 -11 8 -15 4
-19 -33 -29 -38 -10 -44 -9 -59 10 -15 18 -19 19 -24 5 -3 -8 -3 -19 0 -25 12
-19 -137 -26 -238 -12 l-69 10 -73 78 c-40 43 -73 72 -74 64 0 -8 14 -45 32
-83 17 -37 29 -71 25 -74 -12 -12 -117 -6 -191 12 -68 16 -81 23 -108 56 -39
50 -63 51 -55 3 l6 -36 -92 3 -92 3 -71 105 c-39 58 -73 112 -76 120 -3 8 -9
11 -14 7 -4 -4 19 -62 53 -127 l60 -120 -57 0 c-31 0 -82 5 -113 11 -49 10
-57 15 -66 42 -6 16 -11 41 -11 54 0 18 -5 24 -17 21 -14 -3 -18 -14 -18 -55
l0 -53 -65 -19 -65 -20 -34 32 -34 32 22 -39 c25 -44 19 -63 -9 -26 l-20 25 0
-36 c0 -34 -3 -38 -47 -57 -27 -11 -77 -23 -112 -27 l-64 -7 -48 53 -48 54 -1
-33 c0 -18 6 -48 14 -66 l14 -33 -52 -31 c-94 -57 -212 -64 -257 -16 -26 28
-41 31 -32 7 5 -13 3 -15 -13 -9 -10 4 -57 17 -104 28 -122 30 -130 34 -136
68 -11 53 -34 29 -34 -35 0 -28 -7 -39 -49 -69 -27 -20 -52 -42 -54 -49 -3 -7
-18 1 -42 23 l-37 35 24 -49 25 -50 -20 -45 c-30 -68 -27 -173 7 -276 40 -117
106 -242 215 -410 71 -109 169 -212 276 -295 128 -98 214 -202 220 -270 1 -14
8 -38 14 -53 17 -43 14 -53 -19 -67 -35 -15 -30 -30 10 -30 24 0 30 -6 40 -36
9 -26 9 -39 1 -47 -16 -16 -13 -27 8 -27 25 0 72 -72 60 -91 -14 -23 -11 -29
16 -29 18 0 41 -17 79 -57 l54 -58 -24 -28 c-13 -16 -24 -37 -24 -48 0 -23 -1
-23 36 -5 62 30 68 29 121 -21 28 -27 49 -54 46 -60 -3 -8 5 -13 21 -13 25 0
196 -104 196 -119 0 -5 -7 -14 -15 -21 -16 -13 -21 -40 -7 -40 4 0 24 5 45 11
41 11 79 3 125 -27 23 -15 23 -16 5 -30 -16 -14 -15 -15 22 -11 30 3 55 -3
100 -25 63 -31 87 -48 69 -48 -6 0 -16 -11 -22 -25 -9 -20 -9 -25 3 -25 7 0
16 4 19 9 3 4 20 11 37 15 24 4 47 -2 95 -25 35 -18 64 -35 64 -39 0 -4 -9
-15 -20 -25 -29 -26 -25 -35 12 -24 61 17 105 10 197 -32 65 -30 88 -45 84
-56 -4 -10 1 -13 18 -11 19 2 295 -127 319 -149 3 -2 -4 -9 -15 -16 -32 -17
-103 -90 -80 -82 143 53 184 64 216 55 19 -5 122 -16 229 -25 107 -9 233 -22
279 -30 92 -17 266 -30 381 -30 88 0 334 14 352 20 13 4 46 8 153 21 28 4 181
33 340 66 609 124 747 151 970 183 22 4 51 8 65 10 14 2 48 7 75 10 202 26
558 83 630 102 17 4 107 7 200 6 176 -2 329 -19 457 -53 40 -10 74 -18 75 -16
6 6 -202 85 -287 109 -178 52 -266 62 -535 62 -290 0 -335 -5 -906 -100 -642
-107 -810 -125 -1169 -125 -416 0 -717 47 -1091 170 -561 184 -1105 516 -1684
1025 -168 149 -482 452 -474 459 2 3 65 0 139 -6 141 -11 391 -5 545 12 279
32 570 100 1018 240 181 57 296 88 309 84 13 -4 18 -2 14 4 -6 11 46 32 86 35
13 1 34 7 48 14 29 15 31 13 24 -12 -3 -11 -23 -28 -46 -39 -31 -14 -39 -23
-35 -38 3 -11 0 -21 -9 -25 -8 -3 -12 -9 -9 -14 3 -4 13 -5 22 -2 11 4 14 3 9
-5 -5 -9 0 -9 20 -2 35 14 44 4 11 -11 -33 -15 -41 -36 -22 -55 17 -18 18 -24
6 -42 -7 -12 -13 -11 -37 1 -24 12 -33 13 -47 2 -22 -16 -22 -21 6 -29 18 -5
20 -8 7 -16 -10 -6 -11 -10 -2 -10 6 0 12 -7 12 -15 0 -8 -7 -15 -15 -15 -8 0
-15 -4 -15 -9 0 -5 -10 -7 -22 -4 -20 4 -21 3 -5 -7 9 -6 21 -9 26 -5 5 3 12
1 16 -5 3 -5 2 -10 -2 -10 -5 0 -17 -16 -27 -35 -20 -37 -46 -47 -46 -18 0 16
-1 16 -16 1 -21 -20 -10 -58 17 -58 10 0 19 -4 19 -10 0 -5 -5 -10 -12 -10 -6
0 -3 -10 8 -22 10 -12 13 -18 7 -14 -7 4 -13 2 -13 -3 0 -6 4 -11 8 -11 6 0 8
-40 3 -58 -1 -1 -9 1 -18 7 -12 6 -22 5 -30 -4 -16 -18 -2 -33 30 -29 31 3 51
-22 37 -47 -10 -17 -1 -20 53 -19 33 0 28 -16 -8 -30 -35 -13 -59 -54 -46 -78
8 -15 4 -24 -22 -46 -29 -26 -30 -29 -14 -41 10 -7 17 -17 15 -21 -4 -12 43
-65 52 -59 10 6 32 -44 24 -56 -3 -6 -3 -26 0 -45 5 -25 12 -34 26 -34 25 0
25 -6 1 -37 -16 -20 -18 -29 -9 -48 18 -40 62 -44 65 -5 2 27 -16 25 -26 -2
-6 -18 -9 -19 -14 -5 -4 10 -2 17 3 17 6 0 9 6 7 13 -1 6 6 11 16 9 9 -2 17 2
17 8 0 14 22 12 45 -6 16 -12 17 -16 6 -23 -9 -6 -10 -11 -2 -15 14 -9 14 -36
0 -36 -5 0 -7 4 -4 10 9 14 -23 12 -39 -2 -10 -10 -8 -17 10 -37 20 -22 21
-27 9 -34 -9 -4 -13 -12 -10 -17 4 -6 14 -5 25 2 10 7 16 16 14 20 -3 4 4 8
15 8 12 0 21 -6 21 -13 0 -8 13 -26 30 -40 18 -16 27 -33 24 -42 -4 -9 -1 -15
7 -15 9 -1 7 -6 -5 -15 -11 -8 -15 -15 -9 -15 7 0 10 -10 7 -24 -4 -23 -2 -24
26 -16 16 5 34 11 39 14 5 3 7 -2 4 -12 -3 -14 1 -19 19 -18 13 1 22 -4 21
-11 -2 -9 6 -11 26 -7 23 5 30 2 36 -15 5 -16 12 -20 30 -15 12 3 26 1 29 -5
5 -7 -3 -11 -18 -11 -23 0 -26 -4 -26 -34 0 -27 4 -33 21 -32 11 0 27 12 34
26 14 25 14 25 15 3 0 -18 6 -23 28 -23 40 0 47 11 20 32 -19 15 -20 18 -5 18
24 0 32 -4 29 -14 -1 -4 2 -14 8 -20 5 -7 8 -15 5 -18 -3 -3 10 -16 30 -29 19
-13 33 -29 31 -35 -3 -8 8 -12 31 -12 24 0 43 -8 62 -26 l27 -26 11 30 c6 17
18 30 27 30 9 0 16 8 17 18 0 15 2 14 10 -3 6 -11 26 -31 45 -45 19 -14 44
-33 56 -42 23 -20 43 -24 33 -8 -4 6 8 13 25 16 20 5 29 11 26 20 -3 8 0 11 8
8 8 -3 16 4 19 16 3 12 10 19 15 16 13 -8 10 -30 -6 -49 -10 -12 -9 -16 3 -21
9 -3 13 -2 10 3 -9 15 14 24 29 12 7 -6 16 -8 19 -4 4 3 7 1 7 -5 0 -6 7 -9
15 -5 9 3 14 8 11 11 -9 9 15 43 26 36 7 -4 5 -10 -6 -16 -15 -8 -15 -11 -1
-25 14 -14 14 -17 -2 -30 -17 -14 -17 -14 0 -9 10 3 23 6 29 6 7 0 7 4 0 13
-6 7 -9 23 -5 35 3 12 0 29 -7 37 -11 13 -9 14 15 1 15 -8 33 -23 40 -33 12
-17 11 -21 -5 -33 -26 -18 -5 -32 26 -18 30 14 37 34 18 53 -14 13 -13 15 5
15 12 0 21 4 21 9 0 5 9 11 21 14 17 5 20 2 16 -14 -3 -10 -1 -22 4 -25 5 -3
9 6 9 20 0 17 6 26 16 26 8 0 12 5 8 11 -3 6 5 3 20 -6 14 -10 23 -22 19 -29
-4 -6 1 -5 11 3 11 10 13 16 6 21 -8 5 -6 12 6 24 12 12 20 14 27 7 16 -16 31
-13 18 3 -10 11 -8 15 6 19 17 4 17 5 -1 6 -15 1 -16 4 -6 16 17 20 30 19 30
-2 0 -15 2 -15 9 -4 7 11 10 9 13 -10 2 -18 9 -24 28 -24 15 0 25 6 25 15 0 8
4 21 8 28 5 7 3 12 -3 12 -7 0 -5 6 4 15 11 11 21 12 38 5 l23 -9 -23 -7 c-18
-5 -20 -9 -10 -15 10 -7 8 -9 -7 -9 -19 -1 -19 -1 -2 -11 13 -8 22 -7 33 1 11
10 14 9 15 -6 0 -12 4 -8 10 11 5 17 5 32 0 35 -5 3 -1 15 9 28 l18 22 21 -27
c19 -27 20 -27 21 -6 0 17 5 21 23 18 16 -3 25 2 33 19 9 19 9 23 -1 20 -7 -3
-15 4 -18 16 -6 23 13 36 38 26 8 -3 16 0 17 7 0 7 2 17 3 22 2 6 3 18 4 28 2
29 31 20 32 -10 0 -16 3 -22 6 -14 3 7 15 23 26 34 14 14 17 22 9 25 -7 2 -12
9 -12 16 0 13 59 14 79 2 5 -4 12 -2 16 4 3 6 -4 14 -17 19 -21 9 -21 10 -3
11 11 1 14 4 7 7 -7 2 -17 14 -23 25 -9 17 -5 25 28 53 30 27 35 36 24 44 -11
7 -8 11 10 17 13 4 27 8 30 9 3 0 12 7 21 16 11 11 13 20 6 32 -6 11 -5 17 2
17 5 0 10 -4 10 -9 0 -17 40 -19 49 -3 5 10 13 16 18 14 4 -2 9 0 10 5 2 4
-13 19 -32 32 -30 20 -33 26 -23 40 12 15 11 15 -7 0 -11 -9 -29 -18 -40 -21
-28 -7 -26 31 3 60 12 12 22 27 22 34 0 6 3 8 7 5 3 -4 12 1 20 11 14 16 14
16 9 0 -3 -10 0 -18 7 -19 7 0 19 -2 28 -4 14 -2 16 5 12 46 -3 42 -1 49 14
50 14 0 12 3 -6 10 -16 6 -28 6 -35 -1 -13 -13 -29 -13 -21 0 3 6 1 10 -4 10
-6 0 -11 -6 -11 -14 0 -8 -4 -17 -9 -20 -11 -7 -9 13 2 32 5 6 5 17 2 22 -9
14 18 13 33 -2 9 -9 11 -7 8 9 -2 11 0 26 4 34 7 11 10 11 15 -2 9 -24 84 -21
82 3 -1 10 -7 20 -15 23 -7 3 -10 9 -7 15 3 5 2 10 -4 10 -5 0 -11 -5 -13 -11
-3 -9 -10 -9 -26 0 -26 14 -19 35 9 28 20 -5 24 1 11 18 -11 15 -32 17 -47 5
-9 -8 -14 -5 -18 10 -3 13 0 20 9 20 16 0 19 16 4 25 -5 3 -10 1 -10 -5 0 -6
-4 -8 -10 -5 -20 13 -9 31 30 48 22 9 41 21 41 27 1 5 2 16 3 23 1 7 13 11 31
9 26 -2 31 1 33 23 1 16 -3 25 -13 25 -8 0 -15 -4 -15 -10 0 -19 -28 -10 -44
16 -16 24 -16 27 3 60 14 23 16 34 8 34 -23 0 -67 25 -67 38 0 15 13 20 55 24
24 2 30 -1 28 -15 -1 -14 4 -18 20 -13 37 9 400 -252 677 -489 277 -237 651
-600 1019 -990 l122 -130 -82 115 c-45 63 -95 132 -111 152 -26 33 -27 37 -11
42 10 3 28 4 41 1 14 -2 22 1 22 11 0 8 9 14 19 14 16 0 18 6 14 34 -5 36 5
44 65 55 4 1 0 5 -8 11 -23 14 -3 24 46 22 44 -2 45 -1 43 26 -4 34 16 63 56
82 26 13 31 21 31 57 1 37 -2 43 -27 52 -15 5 -29 8 -31 6 -2 -2 -4 5 -5 15
-1 11 0 20 1 20 2 0 27 -4 55 -10 38 -7 57 -6 72 3 13 8 22 9 27 2 10 -14 66
-20 58 -6 -4 6 -11 11 -17 11 -19 0 -46 37 -38 53 6 10 3 19 -8 28 -10 8 -14
9 -10 2 4 -6 3 -14 -1 -17 -5 -3 -14 5 -19 17 -9 19 -6 27 16 49 33 33 33 70
0 98 -17 15 -19 20 -6 16 11 -3 17 0 17 9 0 18 -17 29 -22 13 -2 -6 -17 1 -35
19 l-32 31 25 6 c13 4 24 11 24 16 0 6 7 10 16 10 9 0 12 5 8 12 -4 7 -3 8 5
4 6 -4 8 -12 5 -18 -5 -8 -1 -9 10 -5 10 4 22 7 27 7 5 0 9 7 9 16 0 8 3 13 8
11 4 -2 14 4 23 13 21 22 8 45 -26 45 -26 1 -34 -10 -12 -18 6 -3 -5 -6 -26
-6 -24 -1 -36 3 -32 9 4 6 11 8 16 5 5 -4 9 -1 9 4 0 6 -5 11 -12 11 -6 0 -8
3 -5 6 3 4 1 16 -5 27 -8 16 -7 23 7 33 15 12 15 13 -4 23 -11 6 -38 11 -61
11 -39 0 -40 -1 -24 -17 16 -16 15 -18 -12 -29 -27 -12 -29 -11 -32 14 -2 15
1 28 8 30 18 6 -22 31 -50 32 -35 0 -57 15 -36 23 9 4 16 12 16 19 0 9 -3 8
-10 -2 -7 -10 -10 -11 -11 -2 -3 21 -4 26 -18 50 -7 13 -11 26 -8 28 8 9 57
-8 51 -17 -3 -5 -10 -6 -16 -3 -6 4 -8 2 -5 -3 4 -6 19 -9 34 -6 26 3 26 3 6
-6 -13 -6 -23 -12 -23 -14 0 -8 53 1 59 11 5 8 11 5 21 -8 13 -19 37 -29 26
-12 -2 4 14 6 36 4 22 -3 42 -10 44 -17 4 -9 13 -10 32 -4 15 4 56 13 92 18
100 16 181 62 280 157 48 46 87 78 88 71 4 -41 9 -53 30 -65 13 -8 22 -16 19
-19 -11 -11 -56 29 -51 45 4 13 2 12 -11 -3 -15 -19 -14 -20 5 -29 11 -5 20
-12 20 -16 0 -4 16 -11 36 -15 27 -5 34 -9 25 -18 -18 -18 -13 -65 8 -72 23
-7 46 -33 38 -42 -4 -3 -14 0 -22 7 -13 11 -20 10 -44 -8 -28 -21 -71 -26 -71
-9 0 5 -6 7 -14 4 -7 -3 -19 0 -25 6 -8 8 -11 7 -11 -5 0 -22 26 -43 35 -28 5
7 18 4 42 -10 20 -11 38 -19 40 -16 10 10 34 -24 26 -36 -4 -7 -8 -20 -8 -28
0 -8 -10 -19 -22 -25 -24 -10 -33 -30 -11 -23 7 3 24 -9 37 -25 l25 -30 -22
-15 c-15 -10 -22 -24 -22 -47 0 -29 -4 -33 -30 -37 -17 -3 -30 0 -30 6 0 6 -5
3 -11 -7 -8 -14 -7 -23 7 -38 9 -10 24 -19 32 -19 12 0 12 -3 1 -17 -13 -17
-13 -17 7 0 24 20 38 22 29 5 -4 -7 1 -4 9 6 16 19 16 19 16 -2 0 -15 6 -22
20 -22 11 0 20 -5 20 -11 0 -6 -7 -9 -15 -5 -28 10 -15 -23 30 -78 28 -34 40
-58 34 -62 -8 -4 -7 -9 2 -16 11 -7 9 -8 -6 -6 -15 3 -20 11 -18 32 2 21 -2
26 -13 22 -9 -3 -24 -6 -33 -6 -21 0 -62 -71 -45 -77 7 -2 9 -13 6 -25 -4 -18
-2 -20 16 -16 26 7 38 -18 18 -38 -19 -18 -30 -18 -22 1 7 20 -4 19 -30 -3
-22 -18 -42 -58 -23 -47 5 4 17 1 25 -6 12 -10 13 -9 9 3 -4 9 1 18 9 21 10 4
16 1 16 -7 0 -8 7 -16 15 -20 9 -3 15 -17 14 -33 0 -27 -1 -28 -11 -5 -13 26
-28 29 -28 6 0 -11 -6 -14 -17 -10 -15 5 -14 3 2 -10 11 -8 19 -22 17 -31 -2
-8 1 -12 7 -9 14 9 25 -14 13 -26 -6 -6 -17 0 -31 20 -24 34 -74 71 -65 48 3
-8 1 -17 -5 -20 -15 -10 -1 -36 19 -36 14 0 17 -5 12 -22 -5 -20 -4 -21 11
-10 21 18 40 6 31 -20 -3 -11 -2 -18 3 -15 5 3 15 2 23 -4 11 -6 8 -9 -12 -9
-32 0 -37 -7 -29 -37 6 -21 8 -22 33 -9 23 12 29 12 39 0 7 -8 20 -12 30 -9
11 4 19 2 19 -4 0 -6 12 -8 28 -5 19 4 32 1 41 -10 7 -8 18 -13 24 -10 7 2 18
-9 24 -26 7 -17 7 -30 2 -30 -17 0 9 -37 30 -43 32 -8 47 9 22 24 -26 17 -26
23 2 51 13 14 21 32 19 46 -2 13 4 32 14 43 16 17 16 19 1 19 -12 0 -16 8 -15
25 2 18 8 25 23 25 16 0 17 2 5 10 -11 7 -8 10 16 10 41 0 48 20 16 44 -14 11
-22 13 -17 6 5 -9 4 -11 -3 -6 -15 9 -15 43 -1 52 6 3 9 16 7 28 -5 22 12 46
32 46 6 0 8 -5 4 -12 -5 -7 -3 -8 6 -3 7 4 15 2 20 -4 4 -8 17 -10 35 -5 l27
7 -38 18 c-22 10 -47 16 -56 13 -12 -4 -18 0 -18 10 0 9 -5 16 -11 16 -7 0 -9
11 -6 30 4 16 2 32 -3 35 -17 11 -11 24 14 31 32 8 38 27 21 61 -13 24 -13 29
0 36 24 13 17 29 -12 26 -30 -3 -73 16 -73 31 0 5 12 13 28 16 15 4 33 11 40
17 6 5 12 6 12 2 0 -5 9 2 20 15 25 29 25 40 -1 40 -16 0 -19 4 -14 21 5 13 2
25 -6 31 -10 7 -11 11 -3 14 7 3 10 13 7 24 -3 12 3 23 16 32 27 17 27 31 -1
23 -17 -6 -20 -4 -15 9 4 9 2 16 -3 16 -6 0 -10 4 -10 10 0 11 31 1 43 -14 6
-8 10 -7 14 2 8 20 35 15 28 -7 -6 -21 17 -31 70 -31 21 0 26 3 16 9 -21 13 5
24 29 11 16 -9 18 -15 10 -30 -6 -10 -15 -22 -21 -26 -8 -4 -3 -12 12 -20 30
-17 40 -17 34 -1 -3 6 4 18 15 25 17 10 21 10 26 -2 3 -8 0 -24 -6 -36 -8 -15
-8 -26 -2 -32 14 -14 27 10 28 52 3 72 3 73 17 63 6 -5 26 -8 42 -6 41 4 77
-5 69 -18 -4 -6 0 -15 7 -20 10 -6 8 -9 -8 -9 -25 0 -29 -10 -11 -28 16 -16
28 -15 28 1 0 9 31 13 128 13 91 0 126 3 125 12 -2 6 4 9 11 6 9 -3 17 3 21
15 3 12 13 21 21 21 8 0 19 10 24 23 8 20 9 21 10 2 l1 -20 9 20 c6 14 9 15
10 5 1 -9 5 -6 10 8 5 12 18 22 29 22 11 0 23 5 26 11 4 6 19 9 33 8 15 -1 38
3 52 9 l25 11 -22 7 c-33 9 -30 36 5 33 42 -3 62 0 62 11 0 5 -12 13 -26 16
-16 4 -23 12 -20 20 3 8 0 14 -6 14 -6 0 -8 3 -5 6 4 4 12 2 20 -4 8 -7 18 -7
27 -2 15 9 13 11 -12 14 -6 0 -13 11 -14 24 -3 19 0 22 19 19 37 -6 57 -18 51
-31 -4 -6 2 -3 12 7 15 14 16 21 7 36 -10 16 -6 23 28 51 28 22 39 38 37 53
-1 12 1 28 5 34 6 9 1 12 -14 10 -18 -1 -24 3 -25 25 -3 25 -1 26 28 16 23 -8
32 -8 39 3 5 9 3 17 -7 22 -11 6 -12 12 -4 22 14 17 9 75 -7 75 -17 0 -6 58
16 84 9 11 10 16 4 12 -8 -4 -13 -1 -13 8 0 9 -7 17 -15 17 -28 3 -33 4 -40
11 -4 4 8 16 26 27 19 12 30 21 24 21 -5 0 -2 5 8 11 9 6 27 7 40 4 19 -5 20
-5 4 5 -14 9 -15 15 -5 33 10 20 10 21 -5 9 -12 -10 -21 -11 -37 -2 -12 7 -33
9 -46 6 -33 -9 -50 25 -33 66 10 24 10 31 0 38 -7 4 -13 11 -14 16 -1 4 -9 9
-18 9 -17 2 -49 28 -49 40 0 4 7 4 16 1 15 -6 15 -4 3 10 -8 9 -14 24 -14 33
0 11 -10 16 -33 16 -21 1 -37 7 -44 18 -5 10 -13 15 -17 12 -5 -2 -16 4 -26
15 -10 11 -24 20 -32 20 -10 0 -10 6 4 27 17 26 17 26 -5 21 -12 -4 -20 -3
-17 2 8 13 -23 33 -50 33 -20 0 -23 2 -14 13 17 20 -2 17 -28 -5 -14 -12 -21
-27 -18 -40 3 -18 0 -20 -21 -15 -15 4 -24 2 -24 -6 0 -6 -4 -9 -10 -5 -6 4
-6 15 0 31 6 14 10 26 10 27 0 1 -25 0 -55 -1 -45 -3 -55 -1 -55 12 0 10 -8
16 -21 16 -17 0 -19 -3 -10 -13 6 -8 8 -17 4 -20 -12 -12 -51 -7 -66 8 -18 17
-82 31 -72 15 3 -5 1 -10 -5 -10 -6 0 -9 -4 -5 -9 3 -5 1 -12 -5 -16 -5 -3
-10 -2 -10 4 0 5 -12 9 -27 8 -22 -2 -28 2 -28 18 0 11 -8 21 -18 23 -20 4
-23 18 -4 25 7 3 5 6 -5 6 -12 1 -15 6 -11 18 5 12 2 15 -9 10 -9 -3 -24 1
-35 8 -10 8 -25 15 -35 15 -14 0 -14 -4 -5 -25 10 -21 31 -31 60 -26 4 0 7 -3
7 -8 0 -5 3 -17 6 -26 6 -13 1 -16 -22 -13 -20 2 -28 8 -26 19 1 9 -5 20 -14
23 -11 4 -15 2 -11 -7 3 -8 -4 -14 -19 -15 -13 -1 -24 3 -24 9 0 5 -4 8 -9 5
-5 -4 -12 0 -14 6 -4 10 -6 10 -6 0 -1 -7 6 -15 14 -18 20 -8 19 -40 -2 -48
-10 -4 -24 1 -37 15 -12 12 -15 19 -8 15 6 -4 12 -2 12 3 0 15 -13 14 -29 -1
-11 -10 -13 -10 -7 0 4 6 3 12 -3 12 -5 0 -12 -6 -15 -12 -3 -9 -9 -7 -20 6
-9 11 -16 14 -16 8 0 -7 -9 -12 -21 -12 -15 0 -19 4 -15 16 5 13 3 14 -6 7
-11 -8 -64 -10 -108 -4 -5 0 -10 10 -10 21 0 11 -6 20 -14 20 -37 0 -88 76
-112 167 -8 30 -21 67 -29 81 l-14 27 -1 -42 c0 -24 -2 -43 -4 -43 -3 0 -40
26 -83 58 -43 32 -98 72 -122 88 -35 23 -50 42 -70 90 -35 84 -56 112 -71 98
-9 -9 -8 -18 4 -37 20 -29 38 -87 28 -87 -14 0 -232 135 -320 197 -49 35 -150
120 -226 190 -169 156 -255 225 -513 415 -374 274 -484 337 -778 448 -166 62
-204 81 -354 172 -213 130 -261 150 -541 228 -201 56 -413 135 -653 244 -269
122 -346 144 -827 237 -247 48 -424 59 -586 34z m3076 -2580 c0 -9 -9 -15 -25
-15 -22 0 -24 2 -13 15 17 19 38 19 38 0z m74 -40 c24 -18 18 -26 -12 -18 -12
3 -22 12 -22 19 0 18 10 17 34 -1z m2280 -40 c-4 -8 -1 -15 6 -15 6 0 8 -4 5
-10 -3 -6 1 -7 9 -4 9 3 14 10 11 14 -3 4 2 13 10 20 13 11 15 10 9 -6 -5 -18
-5 -18 9 -1 9 11 18 14 22 8 7 -12 -51 -51 -77 -51 -9 0 -20 5 -24 12 -5 7 -3
8 6 3 9 -5 11 -4 6 4 -4 6 -16 9 -26 6 -11 -3 -20 0 -24 11 -5 13 -2 15 18 10
14 -3 28 -2 31 4 9 15 15 12 9 -5z m366 -25 c0 -5 -7 -10 -15 -10 -8 0 -15 5
-15 10 0 6 7 10 15 10 8 0 15 -4 15 -10z m-2852 -65 c6 -15 -14 -17 -26 -2 -9
11 -8 13 6 12 9 0 18 -5 20 -10z m3376 -34 c3 -5 -3 -11 -14 -14 -20 -5 -35 5
-23 17 9 9 31 7 37 -3z m-826 -13 c0 -7 3 -22 7 -34 5 -15 0 -23 -18 -31 -21
-10 -25 -9 -22 5 1 9 10 16 19 16 18 -2 20 4 7 26 -6 8 -7 18 -5 22 7 11 11
10 12 -4z m52 2 c0 -5 -4 -10 -10 -10 -5 0 -10 5 -10 10 0 6 5 10 10 10 6 0
10 -4 10 -10z m407 4 c-3 -3 -12 -4 -19 -1 -8 3 -5 6 6 6 11 1 17 -2 13 -5z
m-270 -30 c-3 -3 -12 -4 -19 -1 -8 3 -5 6 6 6 11 1 17 -2 13 -5z m337 -10 c3
-8 11 -12 17 -8 8 4 9 3 5 -4 -4 -7 -4 -17 0 -24 10 -15 11 -77 2 -71 -5 2 -8
11 -8 19 0 14 -2 13 -16 0 -8 -9 -20 -16 -25 -16 -5 0 -9 -7 -9 -16 0 -12 7
-15 28 -11 l27 6 -28 -12 c-28 -11 -32 -32 -6 -32 8 -1 13 -6 12 -13 -2 -7 4
-12 12 -12 8 0 15 5 15 11 0 5 5 7 11 3 8 -5 9 -2 1 12 -14 25 13 64 44 64 13
0 23 -3 23 -7 -3 -21 2 -33 16 -33 8 0 15 -9 15 -20 0 -12 10 -24 23 -30 17
-7 18 -9 5 -9 -26 -1 -22 -20 6 -30 13 -5 26 -17 29 -25 8 -21 -1 -20 -27 2
-18 15 -19 15 -8 0 14 -17 4 -52 -17 -60 -19 -6 -16 -42 3 -46 15 -3 18 0 13
17 -3 12 -1 21 5 21 5 0 6 5 3 10 -3 6 3 10 14 10 10 0 27 3 37 7 13 5 16 3
11 -10 -4 -11 -1 -17 8 -17 8 0 16 -3 16 -7 7 -39 4 -52 -10 -56 -18 -4 -44
17 -34 27 4 3 1 6 -5 6 -7 0 -13 -10 -14 -22 -3 -55 -6 -74 -13 -90 -5 -13 -2
-18 11 -19 17 -1 17 -2 1 -6 -9 -2 -15 -9 -11 -14 3 -5 10 -7 15 -4 5 4 9 1 9
-5 0 -7 -6 -10 -14 -7 -8 3 -22 0 -32 -8 -12 -9 -25 -10 -35 -4 -12 6 -19 4
-23 -6 -3 -10 7 -21 35 -33 33 -15 38 -21 26 -30 -8 -7 -17 -9 -20 -5 -4 3 -7
-1 -7 -9 0 -9 -10 -18 -21 -21 -17 -5 -20 -11 -15 -32 4 -16 0 -39 -10 -60
-15 -33 -34 -47 -34 -25 0 5 -7 7 -16 3 -11 -4 -15 -1 -12 13 2 13 -5 20 -30
25 -27 5 -32 4 -28 -8 4 -11 1 -13 -14 -8 -30 9 -26 -21 5 -38 l25 -13 -25
-34 c-14 -19 -25 -40 -25 -48 0 -10 -4 -10 -16 3 -9 9 -14 25 -11 35 3 11 1
20 -5 20 -5 0 -7 4 -4 9 4 5 -3 7 -14 4 -11 -3 -20 0 -20 6 0 6 6 11 13 12 6
0 -3 5 -21 10 -18 5 -30 14 -27 19 10 16 -37 29 -57 16 -10 -6 -18 -15 -18
-20 0 -5 8 -2 18 7 20 19 32 13 32 -14 0 -23 -24 -30 -48 -13 -17 12 -22 12
-32 -1 -16 -19 -69 -20 -76 -1 -7 19 -46 8 -42 -13 7 -33 -84 -57 -96 -25 -9
24 0 29 21 13 14 -11 15 -11 9 0 -5 7 -4 16 2 20 5 3 -11 6 -36 7 -27 1 -48 6
-50 13 -3 8 -12 2 -24 -16 -11 -15 -18 -20 -14 -11 8 25 -15 34 -31 13 -10
-15 -10 -21 0 -27 9 -6 7 -12 -8 -24 -19 -14 -20 -13 -25 23 -3 21 -2 49 2 62
6 17 4 27 -8 35 -17 13 -15 52 3 49 6 -1 10 5 9 15 -1 12 8 18 27 20 15 2 27
-2 27 -8 0 -8 6 -8 20 0 11 6 20 16 20 22 0 6 7 16 16 23 15 11 15 12 0 12 -9
0 -16 -3 -16 -6 0 -4 -18 -7 -40 -7 -22 -1 -40 3 -40 8 0 5 -13 7 -29 3 -24
-5 -32 -2 -41 14 -8 16 -8 21 2 22 7 1 20 2 28 3 8 0 14 7 13 14 -2 6 2 12 7
12 6 0 10 -4 10 -9 0 -6 8 -9 18 -9 9 1 26 -2 37 -5 26 -9 55 30 30 39 -8 4
-15 13 -15 20 0 12 -4 12 -24 -1 -16 -11 -26 -13 -31 -6 -3 6 -1 11 6 11 8 0
5 5 -5 13 -16 12 -16 14 -2 26 15 13 40 6 31 -8 -2 -5 6 -8 19 -8 18 0 22 4
19 18 -6 22 -23 36 -23 18 0 -8 -4 -8 -13 -1 -7 6 -32 14 -55 18 -25 4 -41 11
-39 18 2 6 11 10 20 10 9 -1 15 2 12 6 -3 4 6 7 19 6 13 0 22 -4 19 -8 -2 -5
3 -8 11 -8 9 0 17 8 17 18 1 9 2 26 3 37 0 11 5 26 9 33 10 15 -15 16 -30 1
-8 -8 -17 -7 -34 5 l-23 16 22 0 c12 0 22 4 22 9 0 6 -12 6 -29 1 -44 -12 -58
3 -25 29 29 23 48 17 59 -20 8 -24 20 -25 22 -1 6 53 16 80 29 75 17 -6 30 25
16 39 -7 7 -14 4 -21 -11 -13 -23 -46 -30 -38 -7 5 14 -10 36 -25 36 -4 0 -8
-8 -9 -17 0 -15 -2 -15 -8 2 -15 37 13 49 109 49 84 -1 86 0 82 21 -2 14 2 24
12 28 9 4 16 3 16 -2 0 -5 10 -12 23 -16 l22 -7 -25 -8 c-14 -4 -21 -8 -17 -9
5 -1 5 -7 0 -13 -14 -24 -11 -38 10 -53 27 -19 38 -19 31 -1 -3 8 0 17 5 21 6
3 8 11 5 17 -11 18 18 27 40 13 17 -13 21 -12 34 6 10 14 22 19 38 16 13 -2
22 1 21 7 -1 6 7 11 19 10 13 0 21 6 20 15 -1 12 6 15 24 12 35 -4 62 -20 55
-32 -4 -5 -3 -14 1 -20 4 -8 9 -7 14 2 6 9 12 9 24 -4 9 -9 17 -19 16 -22 -1
-20 1 -25 11 -25 11 0 6 71 -7 92 -5 7 -1 9 9 5 10 -4 18 1 22 14 8 23 21 25
29 3z m-2681 -36 c-2 -5 1 -8 6 -8 6 0 14 0 19 0 4 0 7 6 7 12 0 18 33 22 51
7 13 -10 17 -10 24 0 4 8 10 9 14 3 3 -5 -1 -13 -9 -16 -22 -8 3 -46 30 -46
12 0 41 -18 65 -40 53 -48 106 -88 97 -74 -7 11 68 12 79 1 4 -4 1 -7 -7 -7
-8 -1 -3 -7 11 -15 33 -19 18 -19 -27 0 -25 11 -40 12 -47 5 -7 -7 -2 -10 16
-10 17 0 27 -7 31 -20 5 -20 27 -28 27 -10 0 6 4 10 8 10 4 0 8 -12 8 -27 -1
-16 4 -28 11 -28 7 0 19 -9 28 -20 16 -20 16 -20 10 1 -6 24 18 63 29 46 4 -7
2 -12 -3 -12 -6 0 -11 -9 -11 -20 0 -18 3 -19 21 -10 12 7 18 18 15 26 -3 8
-1 14 3 14 5 0 11 -5 13 -12 3 -8 12 -4 26 10 24 24 42 29 42 11 0 -18 -26
-37 -56 -41 -17 -2 -28 -8 -26 -15 1 -7 -5 -13 -13 -13 -8 0 -15 -7 -15 -15 0
-8 9 -15 21 -15 11 0 18 -4 15 -8 -10 -16 38 -47 72 -47 23 1 31 -3 27 -13 -3
-10 1 -12 18 -7 19 5 20 4 4 -5 -9 -6 -21 -9 -26 -5 -5 3 -12 1 -16 -5 -3 -5
-2 -10 3 -10 15 0 24 -32 13 -43 -7 -7 -12 -5 -17 6 -10 26 -34 20 -34 -8 0
-19 4 -23 18 -18 14 5 15 3 5 -8 -10 -10 -16 -10 -25 -1 -7 7 -21 12 -32 12
-18 0 -18 -1 -3 -18 10 -10 14 -22 10 -25 -3 -4 -1 -7 5 -7 7 0 12 -7 12 -15
0 -18 -26 -20 -33 -2 -3 7 -6 5 -6 -5 -1 -11 6 -18 18 -18 11 0 26 -3 35 -6
12 -5 16 0 16 19 0 14 5 29 12 33 7 5 8 3 3 -6 -5 -9 -2 -10 12 -6 15 5 18 1
18 -19 -2 -37 -17 -48 -49 -35 -38 14 -65 13 -82 -5 -21 -21 -35 -19 -41 5 -3
11 -9 20 -14 20 -5 0 -4 -11 1 -25 7 -19 6 -23 -5 -19 -8 3 -13 11 -12 16 1 6
-4 13 -12 16 -9 3 -11 0 -6 -8 6 -9 3 -9 -14 -1 -14 8 -27 9 -38 2 -11 -6 -24
-6 -36 1 -10 5 -25 7 -32 4 -8 -3 -17 -1 -20 4 -4 6 5 10 19 10 26 0 66 31 66
51 0 5 -3 8 -7 6 -5 -3 -17 -1 -28 3 -13 5 -24 2 -31 -8 -6 -9 -19 -17 -30
-18 -10 -2 -29 -6 -43 -9 -25 -6 -25 -7 -7 -20 12 -10 16 -20 11 -32 -7 -17
-8 -17 -14 2 -8 19 -8 19 -20 0 -11 -18 -12 -18 -8 8 3 18 0 27 -9 27 -8 0
-14 5 -14 11 0 5 4 7 10 4 5 -3 18 -1 27 5 14 9 8 10 -30 7 -50 -5 -96 -36
-98 -66 0 -10 -4 -8 -9 7 -9 22 -30 31 -30 12 0 -5 -5 -10 -11 -10 -5 0 -8 4
-5 9 3 5 -1 12 -9 15 -9 3 -18 -1 -21 -9 -4 -8 -10 -15 -16 -15 -5 0 -7 4 -3
9 10 17 -29 18 -49 2 -11 -9 -16 -10 -12 -3 4 7 2 12 -5 12 -7 0 -4 7 7 15 12
9 14 14 6 15 -7 0 -11 4 -7 9 3 5 0 13 -5 16 -7 5 -5 12 7 20 17 13 17 14 -2
28 -19 15 -19 16 -2 35 12 13 15 22 8 27 -12 7 10 35 27 35 15 0 22 26 9 39
-15 15 -37 14 -37 -2 0 -8 -12 -14 -30 -14 -30 0 -41 19 -18 33 7 5 5 12 -8
22 -20 15 -15 15 31 -4 10 -4 15 0 15 10 0 9 7 19 15 22 11 5 12 11 5 24 -14
26 -13 31 7 28 22 -4 48 42 30 55 -8 6 -6 7 5 3 23 -7 43 27 25 43 -7 5 -23 8
-35 4 -21 -5 -21 -5 -6 27 9 17 22 34 29 37 8 2 11 11 9 18 -3 7 0 16 6 20 6
4 8 16 4 27 -5 18 -4 19 9 7 8 -8 13 -17 10 -21z m-123 -28 c0 -5 -7 -7 -15
-4 -8 4 -15 8 -15 10 0 2 7 4 15 4 8 0 15 -4 15 -10z m2968 -19 c9 -5 25 -12
35 -15 26 -8 21 -26 -8 -26 -14 0 -25 5 -25 11 0 7 -8 18 -17 25 -21 15 -11
18 15 5z m257 -1 c-3 -5 -14 -10 -23 -9 -14 0 -13 2 3 9 27 11 27 11 20 0z
m-3225 -10 c0 -5 -5 -10 -11 -10 -5 0 -7 5 -4 10 3 6 8 10 11 10 2 0 4 -4 4
-10z m470 -4 c0 -2 -7 -7 -16 -10 -8 -3 -12 -2 -9 4 6 10 25 14 25 6z m191 -9
c-6 -8 -8 -17 -4 -20 3 -4 1 -7 -5 -7 -15 0 -15 13 0 28 16 16 23 15 9 -1z
m-282 -13 c-9 -11 -15 -11 -25 -3 -19 15 -18 17 11 17 21 0 23 -3 14 -14z
m-2198 -11 c13 -16 12 -17 -3 -4 -17 13 -22 21 -14 21 2 0 10 -8 17 -17z m-74
-10 c2 -6 -3 -13 -12 -16 -10 -5 -15 0 -15 14 0 21 21 22 27 2z m2453 14 c0
-1 -9 -10 -20 -20 -16 -13 -20 -14 -20 -3 0 8 8 17 18 19 9 3 18 5 20 6 1 0 2
0 2 -2z m157 -12 c0 -8 -4 -12 -9 -9 -5 3 -6 10 -3 15 9 13 12 11 12 -6z
m-297 -10 c0 -8 -2 -15 -4 -15 -2 0 -6 7 -10 15 -3 8 -1 15 4 15 6 0 10 -7 10
-15z m2765 5 c-3 -5 -13 -10 -21 -10 -8 0 -12 5 -9 10 3 6 13 10 21 10 8 0 12
-4 9 -10z m-2545 -14 c0 -3 -4 -8 -10 -11 -5 -3 -10 -1 -10 4 0 6 5 11 10 11
6 0 10 -2 10 -4z m1574 -17 c-8 -14 -31 -11 -37 4 -4 10 2 13 19 9 13 -2 21
-8 18 -13z m-2287 5 c-3 -3 -12 -4 -19 -1 -8 3 -5 6 6 6 11 1 17 -2 13 -5z
m103 -4 c0 -5 -5 -10 -11 -10 -5 0 -7 5 -4 10 3 6 8 10 11 10 2 0 4 -4 4 -10z
m-2800 -25 c0 -8 -4 -15 -10 -15 -5 0 -10 7 -10 15 0 8 5 15 10 15 6 0 10 -7
10 -15z m3400 6 c0 -11 -29 -35 -44 -37 -33 -3 -37 -5 -32 -12 2 -4 1 -14 -3
-21 -6 -9 -8 -4 -8 13 0 15 5 26 13 26 8 0 14 5 14 11 0 8 4 9 13 0 14 -11 27
-5 27 11 0 5 -5 6 -12 2 -7 -4 -8 -3 -4 4 8 14 36 16 36 3z m100 -13 c0 -6 -9
-8 -20 -5 -11 3 -18 1 -14 -4 3 -5 1 -9 -5 -9 -16 0 -25 22 -11 30 15 9 50 1
50 -12z m2595 -38 c-7 -11 -65 -9 -65 2 0 15 44 27 57 16 7 -6 11 -14 8 -18z
m-2687 -4 c-7 -8 -17 -12 -22 -9 -4 3 -2 9 5 14 22 13 31 11 17 -5z m-3404
-11 c-4 -8 -11 -15 -16 -15 -6 0 -5 6 2 15 7 8 14 15 16 15 2 0 1 -7 -2 -15z
m3549 -7 c8 -24 -7 -48 -23 -38 -11 7 -11 10 -2 10 9 0 11 7 7 20 -7 21 10 28
18 8z m-3599 -31 c-3 -8 -11 -14 -19 -14 -11 0 -12 4 -4 14 6 7 15 13 20 13 5
0 6 -6 3 -13z m2739 -4 c-7 -2 -19 -2 -25 0 -7 3 -2 5 12 5 14 0 19 -2 13 -5z
m-203 -63 c0 -5 -5 -10 -11 -10 -5 0 -7 5 -4 10 3 6 8 10 11 10 2 0 4 -4 4
-10z m1103 -24 c4 -10 1 -13 -9 -9 -7 3 -14 9 -14 14 0 14 17 10 23 -5z m-66
-2 c-3 -3 -12 -4 -19 -1 -8 3 -5 6 6 6 11 1 17 -2 13 -5z m2512 -3 c9 -6 11
-16 7 -27 -6 -16 -8 -16 -16 -4 -6 8 -10 11 -10 6 0 -6 -5 -5 -11 1 -6 6 -8
16 -5 22 9 13 16 14 35 2z m-3269 -11 c0 -5 -4 -10 -10 -10 -5 0 -10 5 -10 10
0 6 5 10 10 10 6 0 10 -4 10 -10z m3045 -20 c-3 -5 -11 -10 -16 -10 -6 0 -7 5
-4 10 3 6 11 10 16 10 6 0 7 -4 4 -10z m-3850 -69 c-3 -5 -18 -4 -34 2 -17 6
-28 15 -25 19 3 4 0 8 -5 8 -6 0 -11 5 -11 10 0 6 18 1 40 -10 23 -12 38 -25
35 -29z m2744 18 c-10 -6 -11 -9 -1 -9 6 0 12 -6 12 -14 0 -8 6 -16 13 -19 6
-2 10 -7 7 -10 -3 -3 -18 6 -33 19 -24 20 -27 27 -17 39 7 8 17 12 22 9 6 -4
5 -10 -3 -15z m-1969 -12 c-14 -5 -32 -13 -41 -17 -28 -15 -31 3 -3 21 14 9
35 14 47 11 20 -5 20 -6 -3 -15z m-1294 -62 c-2 -24 1 -35 10 -35 8 0 14 10
14 24 0 19 5 24 25 22 16 0 23 -6 20 -13 -2 -8 4 -13 15 -13 11 0 20 5 20 10
0 21 19 9 32 -21 11 -25 18 -30 41 -26 15 2 27 1 27 -2 0 -4 10 -11 22 -16 20
-9 65 -75 52 -75 -4 0 -2 -6 3 -12 16 -20 25 -86 13 -93 -13 -8 -13 -62 0 -70
18 -11 11 -26 -30 -66 -24 -24 -37 -45 -34 -54 4 -8 -1 -17 -10 -21 -9 -3 -16
-15 -16 -25 0 -27 -42 -51 -74 -43 -20 5 -31 2 -41 -12 -13 -18 -14 -18 -21
-1 -6 17 -8 17 -25 1 -11 -9 -19 -12 -19 -7 0 6 -11 14 -25 17 -14 4 -25 11
-25 17 0 6 -13 7 -34 4 -28 -6 -34 -4 -39 14 -3 14 -13 21 -29 21 -18 0 -20 2
-8 10 11 7 9 11 -13 19 -15 6 -27 14 -27 19 0 5 -11 15 -25 22 -27 14 -32 39
-13 58 9 9 9 12 -2 12 -11 0 -15 13 -16 46 -1 25 -5 49 -11 52 -15 11 -24 42
-11 42 16 0 37 32 38 58 0 23 18 62 34 74 5 3 25 4 44 1 30 -5 34 -4 29 10 -7
18 27 57 49 57 6 0 17 7 24 15 22 27 39 18 36 -20z m3194 1 c0 -3 -4 -8 -10
-11 -5 -3 -10 -1 -10 4 0 6 5 11 10 11 6 0 10 -2 10 -4z m59 -42 c10 -23 9
-24 -8 -14 -26 13 -31 13 -25 -3 2 -7 -6 -17 -18 -23 -13 -6 -17 -9 -10 -7 6
1 12 -2 12 -7 0 -13 -21 -13 -40 0 -10 6 -11 10 -2 10 6 0 12 7 12 16 0 23 28
47 47 40 13 -5 14 -4 3 9 -11 13 -10 14 2 10 9 -3 20 -17 27 -31z m-69 10 c0
-2 -9 -4 -20 -4 -11 0 -20 4 -20 9 0 5 9 7 20 4 11 -3 20 -7 20 -9z m-1891 -8
c7 -8 8 -17 3 -20 -6 -3 -12 3 -15 14 -6 24 -4 25 12 6z m3036 4 c3 -5 1 -10
-4 -10 -6 0 -11 5 -11 10 0 6 2 10 4 10 3 0 8 -4 11 -10z m-2225 -9 c0 -6 -4
-13 -10 -16 -5 -3 -10 1 -10 9 0 9 5 16 10 16 6 0 10 -4 10 -9z m2515 -21 c3
-5 3 -10 -2 -11 -4 0 -16 -2 -25 -4 -20 -4 -24 11 -5 18 19 8 25 8 32 -3z
m-4120 -10 c3 -5 1 -10 -4 -10 -6 0 -11 5 -11 10 0 6 2 10 4 10 3 0 8 -4 11
-10z m1085 -10 c-11 -7 -12 -10 -2 -10 7 0 10 -4 7 -10 -3 -5 -1 -11 4 -11 6
-1 15 -2 20 -3 5 0 13 -5 18 -9 4 -5 4 -8 -2 -6 -5 1 -18 -1 -27 -5 -11 -5
-26 -1 -42 11 -28 20 -33 33 -12 33 7 0 19 7 26 15 7 9 15 13 19 10 3 -3 -1
-10 -9 -15z m2830 -1 c0 -6 -4 -7 -10 -4 -5 3 -10 11 -10 16 0 6 5 7 10 4 6
-3 10 -11 10 -16z m-3860 1 c0 -5 -5 -10 -11 -10 -5 0 -7 5 -4 10 3 6 8 10 11
10 2 0 4 -4 4 -10z m2690 0 c0 -5 -7 -10 -16 -10 -8 0 -12 5 -9 10 3 6 10 10
16 10 5 0 9 -4 9 -10z m-2775 -9 c3 -5 1 -12 -5 -16 -5 -3 -10 1 -10 9 0 18 6
21 15 7z m55 -5 c0 -3 -4 -8 -10 -11 -5 -3 -10 -1 -10 4 0 6 5 11 10 11 6 0
10 -2 10 -4z m35 -48 c5 4 5 2 1 -5 -4 -8 -16 -9 -36 -3 -26 7 -30 6 -30 -10
0 -10 -4 -22 -10 -25 -5 -3 -10 1 -10 9 0 9 -6 16 -12 17 -7 0 5 9 27 19 35
17 41 17 51 5 6 -8 15 -11 19 -7z m1445 2 c0 -5 -2 -10 -4 -10 -3 0 -8 5 -11
10 -3 6 -1 10 4 10 6 0 11 -4 11 -10z m-30 -14 c0 -3 -4 -8 -10 -11 -5 -3 -10
-1 -10 4 0 6 5 11 10 11 6 0 10 -2 10 -4z m-492 -18 c-3 -7 -11 -13 -18 -13
-7 0 -15 6 -17 13 -3 7 4 12 17 12 13 0 20 -5 18 -12z m222 2 c0 -5 -4 -10
-10 -10 -5 0 -10 5 -10 10 0 6 5 10 10 10 6 0 10 -4 10 -10z m233 3 c-7 -2
-19 -2 -25 0 -7 3 -2 5 12 5 14 0 19 -2 13 -5z m2442 -11 c-3 -3 -11 0 -18 7
-9 10 -8 11 6 5 10 -3 15 -9 12 -12z m-1101 -18 c3 -8 2 -12 -4 -9 -6 3 -10
10 -10 16 0 14 7 11 14 -7z m1226 -34 c0 -5 -2 -10 -4 -10 -3 0 -8 5 -11 10
-3 6 -1 10 4 10 6 0 11 -4 11 -10z m-55 -10 c3 -5 1 -10 -4 -10 -6 0 -11 5
-11 10 0 6 2 10 4 10 3 0 8 -4 11 -10z m-2901 -16 c3 -8 2 -12 -4 -9 -6 3 -10
10 -10 16 0 14 7 11 14 -7z m2466 -4 c0 -5 -4 -10 -10 -10 -5 0 -10 5 -10 10
0 6 5 10 10 10 6 0 10 -4 10 -10z m-2319 -19 c-7 -5 -11 -13 -7 -19 3 -6 0
-13 -6 -15 -7 -3 -1 -6 14 -6 21 -1 26 -5 21 -17 -5 -14 -2 -16 20 -10 54 13
116 18 134 11 32 -13 67 -14 76 -2 5 7 6 3 2 -10 -3 -12 -1 -24 5 -28 7 -4 7
-12 0 -26 -6 -10 -9 -19 -8 -20 43 -11 77 4 72 34 -2 14 5 17 37 17 29 0 39
-4 39 -16 0 -13 3 -14 13 -5 22 17 74 -8 92 -45 20 -43 19 -47 -10 -41 -25 4
-25 4 -8 -13 10 -10 23 -14 28 -10 11 9 45 -12 45 -27 0 -6 10 -18 23 -26 19
-14 20 -18 7 -27 -11 -9 -12 -13 -2 -17 21 -8 13 -20 -12 -16 -36 7 -40 -13
-6 -29 18 -7 29 -19 28 -28 -4 -18 22 -51 34 -44 4 3 8 1 8 -3 0 -5 -9 -14
-20 -21 -19 -12 -19 -14 -5 -29 9 -8 19 -13 22 -10 9 9 44 -39 49 -68 2 -14 0
-25 -6 -25 -5 0 -10 5 -10 10 0 6 -6 10 -14 10 -8 0 -16 7 -20 15 -6 17 -36
21 -36 4 0 -5 5 -7 10 -4 6 3 10 1 10 -4 0 -6 -7 -11 -16 -11 -8 0 -12 -5 -9
-10 3 -6 -6 -15 -22 -20 -15 -6 -36 -14 -45 -20 -10 -5 -24 -7 -33 -4 -8 3
-15 1 -15 -5 0 -6 -3 -10 -7 -10 -21 3 -33 -2 -33 -16 0 -14 -13 -20 -35 -15
-5 1 -2 -7 8 -18 15 -16 16 -21 3 -31 -16 -14 -32 2 -20 21 4 7 3 8 -4 4 -15
-9 -16 -36 -2 -36 18 0 11 -19 -11 -31 -15 -8 -19 -8 -15 0 7 10 -6 16 -27 12
-5 -1 -7 6 -5 16 2 10 12 17 21 17 14 -2 15 1 6 12 -6 7 -19 16 -30 19 -16 5
-17 9 -6 27 9 16 9 22 -1 25 -22 8 -46 37 -33 41 6 2 11 10 11 18 0 8 6 11 15
8 9 -4 15 0 15 9 0 23 -33 15 -52 -12 -9 -14 -15 -28 -13 -32 6 -9 -45 -42
-53 -35 -3 3 0 6 7 6 7 0 9 5 6 10 -4 6 -11 8 -16 4 -5 -3 -8 0 -7 7 2 7 -6
13 -17 14 -11 0 -20 7 -20 15 0 9 7 14 18 12 9 -2 24 4 32 12 17 17 20 30 5
21 -5 -3 -10 -1 -10 4 0 6 7 11 15 11 20 0 19 17 -2 30 -12 8 -14 13 -6 16 7
3 10 11 7 19 -3 7 -1 16 5 20 6 3 11 14 10 23 0 13 -2 11 -9 -5 -7 -18 -14
-20 -37 -14 -28 8 -46 41 -21 41 7 0 0 9 -16 19 -17 11 -35 17 -40 14 -6 -4
-5 1 3 10 8 11 21 15 32 12 11 -4 19 -2 19 4 0 11 -16 16 -35 11 -5 -2 -29 -6
-53 -10 -34 -5 -42 -4 -38 7 3 7 1 13 -4 13 -6 0 -10 -4 -10 -10 0 -5 -5 -10
-10 -10 -7 0 -7 6 -1 19 8 14 6 23 -9 36 -11 10 -20 25 -20 33 0 9 -7 13 -20
9 -15 -4 -22 1 -26 18 -8 33 1 43 33 39 27 -4 27 -3 3 4 -17 5 -21 10 -12 16
6 4 17 4 22 1 19 -12 30 5 17 25 -11 19 -58 29 -56 13 4 -22 -2 -43 -12 -43
-5 0 -7 5 -3 12 4 7 3 8 -5 4 -9 -6 -9 -11 -1 -21 13 -16 2 -25 -25 -21 -24 4
-31 23 -10 28 14 2 13 7 -9 31 l-26 28 32 6 c27 5 29 7 13 13 -11 4 -25 4 -31
-1 -8 -7 -10 -1 -6 18 5 31 27 53 51 53 10 0 12 -3 5 -8 -6 -4 -13 -15 -17
-24 -6 -17 -4 -18 30 -18 4 0 8 6 9 13 3 32 5 37 18 37 7 0 19 7 26 15 7 9 15
13 19 10 3 -3 -1 -10 -8 -14z m-161 -7 c0 -8 -4 -12 -10 -9 -5 3 -10 10 -10
16 0 5 5 9 10 9 6 0 10 -7 10 -16z m355 -4 c3 -5 2 -10 -4 -10 -5 0 -13 5 -16
10 -3 6 -2 10 4 10 5 0 13 -4 16 -10z m132 -11 c-4 -17 -3 -19 6 -10 6 6 23
11 38 11 22 0 26 -4 22 -21 -5 -17 -11 -19 -37 -13 -17 3 -34 8 -38 10 -7 4 1
44 9 44 3 0 3 -10 0 -21z m1771 3 c-10 -2 -18 -8 -18 -13 0 -5 -7 -9 -15 -9
-18 0 -20 27 -2 33 6 2 21 1 32 -2 17 -5 18 -6 3 -9z m358 -2 c8 0 14 -4 14
-9 0 -5 -13 -9 -30 -9 -16 1 -30 3 -30 5 0 10 25 30 28 22 2 -5 10 -9 18 -9z
m-2219 -12 c-3 -8 -6 -5 -6 6 -1 11 2 17 5 13 3 -3 4 -12 1 -19z m1697 -43
c-4 -8 -11 -12 -16 -9 -6 4 -5 10 3 15 19 12 19 11 13 -6z m-1633 -38 c-10 -9
-11 -8 -5 6 3 10 9 15 12 12 3 -3 0 -11 -7 -18z m2219 13 c-12 -8 -12 -10 -1
-10 8 0 12 -3 8 -6 -9 -9 -28 6 -22 17 4 5 12 9 18 9 7 0 6 -4 -3 -10z m-525
-32 c3 -3 -5 -8 -19 -10 -15 -3 -27 0 -30 8 -3 8 3 12 20 10 13 -2 26 -5 29
-8z m105 -11 c0 -7 -14 -14 -31 -15 -28 -2 -30 0 -19 13 15 18 50 20 50 2z
m-535 -7 c-3 -5 -12 -7 -20 -3 -21 7 -19 13 6 13 11 0 18 -4 14 -10z m568 3
c10 -17 -13 -52 -32 -50 -19 1 -19 2 -3 29 16 28 27 34 35 21z m421 -7 c8 3
16 -2 20 -11 3 -9 2 -13 -4 -10 -5 3 -18 0 -29 -7 -26 -16 -36 -5 -19 21 7 12
14 17 16 12 2 -6 9 -8 16 -5z m-214 -17 c0 -6 7 -8 18 -4 14 5 15 4 4 -6 -10
-11 -15 -10 -29 4 -11 11 -13 17 -5 17 7 0 12 -5 12 -11z m-1759 -22 c-13 -13
-26 -3 -16 12 3 6 11 8 17 5 6 -4 6 -10 -1 -17z m1876 9 c0 -8 -6 -12 -15 -9
-11 5 -11 7 0 14 7 5 13 9 14 9 0 0 1 -6 1 -14z m-377 -36 c-19 -13 -30 -13
-30 0 0 6 10 10 23 10 18 0 19 -2 7 -10z m-5388 -12 c-9 -9 -8 -16 5 -30 21
-23 14 -30 -38 -34 -38 -3 -40 -2 -24 10 18 13 18 14 -3 20 -31 10 -17 33 17
28 16 -2 32 1 35 7 4 6 10 11 14 11 3 0 1 -5 -6 -12z m3193 -26 c-8 -8 -25 10
-19 20 4 6 9 5 15 -3 4 -7 6 -15 4 -17z m1075 18 c0 -5 -2 -10 -4 -10 -3 0 -8
5 -11 10 -3 6 -1 10 4 10 6 0 11 -4 11 -10z m805 0 c3 -6 -1 -7 -9 -4 -18 7
-21 14 -7 14 6 0 13 -4 16 -10z m-910 -10 c3 -5 1 -10 -4 -10 -6 0 -11 5 -11
10 0 6 2 10 4 10 3 0 8 -4 11 -10z m48 -10 c-5 -20 -15 -25 -26 -13 -5 4 18
30 30 33 0 0 -1 -9 -4 -20z m-250 -11 c4 -16 3 -18 -9 -8 -16 13 -19 29 -5 29
5 0 11 -9 14 -21z m-676 -9 c1 -11 -2 -20 -8 -20 -10 0 -12 23 -2 33 9 9 9 10
10 -13z m1634 -3 c-10 -9 -11 -8 -5 6 3 10 9 15 12 12 3 -3 0 -11 -7 -18z
m-117 -2 c3 -8 1 -15 -4 -15 -6 0 -10 7 -10 15 0 8 2 15 4 15 2 0 6 -7 10 -15z
m-1549 -43 c-3 -3 -11 0 -18 7 -9 10 -8 11 6 5 10 -3 15 -9 12 -12z m715 9 c0
-6 -4 -13 -10 -16 -5 -3 -10 1 -10 9 0 9 5 16 10 16 6 0 10 -4 10 -9z m886
-58 c-2 -3 -13 4 -25 16 -18 18 -18 20 -3 23 16 3 38 -29 28 -39z m-1544 13
c20 -30 6 -38 -22 -11 -16 16 -30 30 -30 33 0 7 45 -11 52 -22z m1448 3 c0 -5
-7 -9 -15 -9 -8 0 -15 7 -15 15 0 9 6 12 15 9 8 -4 15 -10 15 -15z m-1380 -19
c0 -11 -5 -22 -10 -25 -6 -4 -8 -15 -5 -26 4 -10 2 -19 -4 -19 -17 0 -23 20
-16 60 5 28 11 37 21 33 8 -3 14 -13 14 -23z m1700 -6 c0 -2 -9 -4 -20 -4 -11
0 -20 4 -20 9 0 5 9 7 20 4 11 -3 20 -7 20 -9z m-1122 -29 c-3 -3 -9 2 -12 12
-6 14 -5 15 5 6 7 -7 10 -15 7 -18z m962 5 c-29 -23 -36 -24 -46 -8 -4 7 -3 8
5 4 6 -4 18 0 27 8 8 9 21 16 27 16 7 0 1 -9 -13 -20z m-1482 -15 c-3 -3 -9 2
-12 12 -6 14 -5 15 5 6 7 -7 10 -15 7 -18z m-25 -16 c-3 -11 -9 -22 -14 -24
-4 -3 -6 -13 -2 -23 3 -10 -2 -8 -12 7 -13 17 -15 25 -5 31 6 4 11 10 11 14
-3 20 0 25 13 20 8 -3 12 -13 9 -25z m-3296 15 c-3 -3 -12 -4 -19 -1 -8 3 -5
6 6 6 11 1 17 -2 13 -5z m1943 -14 c0 -5 -2 -10 -4 -10 -3 0 -8 5 -11 10 -3 6
-1 10 4 10 6 0 11 -4 11 -10z m1440 -36 c0 -32 -2 -34 -27 -28 -25 6 -26 5
-15 -8 10 -13 10 -17 -3 -22 -8 -3 -16 -1 -16 4 -5 38 -2 45 17 48 16 2 20 8
17 22 -3 11 -10 17 -16 13 -5 -3 -7 -1 -4 5 4 5 16 8 27 5 15 -4 20 -14 20
-39z m488 31 c-2 -5 -7 -9 -13 -7 -5 2 -4 -2 3 -9 18 -19 15 -27 -12 -22 -21
4 -22 7 -12 29 10 23 41 31 34 9z m169 -1 c-3 -3 -12 -4 -19 -1 -8 3 -5 6 6 6
11 1 17 -2 13 -5z m892 -20 c6 4 11 3 11 -3 0 -5 -5 -13 -11 -17 -11 -7 -29
12 -29 31 0 6 4 4 9 -4 5 -7 14 -10 20 -7z m77 1 c9 -8 11 -15 6 -15 -6 0 -17
-3 -25 -6 -14 -5 -16 7 -8 34 2 6 14 1 27 -13z m-1165 -125 c5 0 9 -4 9 -10 0
-16 -37 -11 -44 6 -5 12 -2 15 10 10 8 -3 20 -6 25 -6z m899 -10 c0 -5 -2 -10
-4 -10 -3 0 -8 5 -11 10 -3 6 -1 10 4 10 6 0 11 -4 11 -10z m-1269 -43 c-13
-13 -26 -3 -16 12 3 6 11 8 17 5 6 -4 6 -10 -1 -17z m1484 13 c-3 -5 -11 -10
-16 -10 -6 0 -7 5 -4 10 3 6 11 10 16 10 6 0 7 -4 4 -10z m-1255 -54 c0 -21
-18 -39 -30 -31 -9 6 -8 10 4 17 14 8 15 13 5 24 -10 12 -9 13 5 8 9 -3 16
-11 16 -18z m-210 -16 c0 -5 -2 -10 -4 -10 -3 0 -8 5 -11 10 -3 6 -1 10 4 10
6 0 11 -4 11 -10z m-1853 -79 c-7 -2 -15 -9 -19 -15 -4 -6 -10 -7 -14 -3 -4 4
1 16 11 27 14 16 20 17 26 8 5 -8 3 -15 -4 -17z m3350 13 c2 -5 -15 -20 -37
-33 l-41 -23 5 28 c3 16 0 31 -6 35 -6 4 9 6 32 5 24 0 45 -6 47 -12z m-4810
-41 c-11 -10 -26 8 -20 23 5 15 7 14 15 -1 6 -9 7 -19 5 -22z m-27 -7 c0 -3
-4 -8 -10 -11 -5 -3 -10 -1 -10 4 0 6 5 11 10 11 6 0 10 -2 10 -4z m4571 -89
c-1 -12 -15 -9 -19 4 -3 6 1 10 8 8 6 -3 11 -8 11 -12z m-3354 -43 c-3 -3 -12
-4 -19 -1 -8 3 -5 6 6 6 11 1 17 -2 13 -5z m2393 -31 c0 -16 -16 -31 -40 -37
-14 -3 -19 -3 -13 0 9 4 10 11 3 25 -10 17 -7 19 20 19 16 0 30 -3 30 -7z
m1140 3 c0 -3 -4 -8 -10 -11 -5 -3 -10 -1 -10 4 0 6 5 11 10 11 6 0 10 -2 10
-4z m-3830 -51 c0 -8 -7 -15 -16 -15 -14 0 -14 3 -4 15 7 8 14 15 16 15 2 0 4
-7 4 -15z m35 -15 c3 -5 1 -10 -4 -10 -6 0 -11 5 -11 10 0 6 2 10 4 10 3 0 8
-4 11 -10z"/>
<path d="M9590 5079 c0 -5 5 -7 10 -4 6 3 10 8 10 11 0 2 -4 4 -10 4 -5 0 -10
-5 -10 -11z"/>
<path d="M9440 5045 c0 -8 5 -15 10 -15 6 0 10 7 10 15 0 8 -4 15 -10 15 -5 0
-10 -7 -10 -15z"/>
<path d="M9340 4991 c0 -11 -4 -23 -10 -26 -5 -3 -10 -1 -10 5 0 12 -53 2 -58
-12 -2 -4 -8 -6 -13 -2 -5 3 -9 1 -9 -5 0 -5 5 -11 11 -13 5 -2 7 -11 3 -21
-3 -10 -13 -16 -20 -13 -8 3 -14 1 -14 -5 0 -5 11 -14 25 -19 l25 -9 -21 -36
c-27 -46 -35 -49 -56 -28 -11 11 -28 19 -38 19 -11 0 -36 4 -55 8 -23 5 -30 4
-21 -2 11 -8 11 -16 3 -40 -8 -24 -7 -33 4 -43 12 -10 13 -9 8 5 -10 27 24 19
58 -13 29 -27 30 -31 18 -60 -14 -35 -7 -63 14 -59 8 2 23 -7 34 -20 11 -13
23 -19 26 -13 4 5 2 12 -4 16 -15 9 -12 25 5 25 8 0 15 6 15 14 0 7 -7 19 -15
26 -8 7 -15 9 -15 4 0 -4 -5 -3 -11 3 -19 19 8 55 34 47 12 -4 26 -13 30 -20
12 -21 48 -17 54 6 6 23 8 24 34 10 23 -13 26 -40 4 -40 -8 0 -15 -4 -15 -10
0 -5 -13 -10 -29 -10 -43 0 -52 -18 -37 -70 14 -46 41 -64 57 -38 11 17 50 19
66 2 16 -16 17 -28 1 -18 -8 5 -9 2 -5 -10 4 -9 3 -15 -2 -11 -16 9 -59 -13
-66 -34 -6 -19 -7 -19 -35 -3 -23 13 -26 19 -17 31 9 11 9 15 0 18 -7 3 -13
13 -13 22 0 14 -6 17 -29 13 -22 -3 -29 1 -34 17 -3 12 -12 21 -20 21 -10 0
-13 -7 -10 -20 3 -11 1 -20 -5 -20 -5 0 -15 -14 -22 -31 -12 -27 -11 -33 8
-52 l21 -21 10 26 c5 14 16 28 24 31 35 13 57 -39 26 -61 -25 -17 -24 -35 1
-27 10 3 47 7 81 7 47 1 64 -3 71 -15 4 -9 15 -14 22 -11 8 3 16 -4 20 -21 5
-21 9 -24 26 -15 10 5 28 10 40 10 14 0 24 8 27 21 4 13 11 18 22 14 8 -3 12
-3 9 1 -8 8 14 34 25 27 4 -2 7 0 7 5 0 6 -7 12 -15 16 -8 3 -15 15 -15 26 0
15 -7 20 -24 20 -22 0 -26 -6 -32 -46 -7 -46 -29 -68 -44 -44 -4 7 -13 9 -19
5 -7 -4 -23 4 -37 18 l-25 25 23 4 c18 2 22 9 20 27 -2 19 1 22 19 18 13 -3
22 0 26 10 4 9 13 13 28 9 12 -3 30 0 39 7 16 12 16 14 3 26 -12 9 -21 10 -36
2 -27 -15 -31 -14 -31 10 0 29 18 59 35 59 9 0 12 6 9 15 -4 8 -2 15 4 15 5 0
18 12 27 27 17 26 17 27 -5 45 -13 11 -25 33 -27 50 -2 17 -7 36 -13 43 -6 7
-2 21 12 40 11 17 18 22 14 13 -4 -13 0 -18 15 -18 15 0 19 -5 15 -16 -4 -10
-1 -14 6 -12 14 5 45 -29 48 -52 4 -26 0 -50 -7 -49 -20 3 -24 -2 -14 -15 9
-11 7 -21 -9 -48 -11 -18 -20 -39 -20 -45 0 -22 28 -14 32 9 4 30 28 36 28 6
0 -13 -9 -29 -21 -36 -12 -7 -18 -16 -15 -19 3 -3 13 0 22 8 15 12 16 11 10
-9 -8 -25 12 -39 40 -28 13 5 14 9 5 20 -8 10 -9 16 -2 21 14 8 10 53 -6 59
-15 6 -37 86 -26 97 4 4 26 9 48 11 l39 3 -29 32 c-17 17 -38 43 -47 57 -15
21 -23 24 -53 19 -28 -4 -35 -2 -35 11 0 9 -6 16 -14 16 -8 0 -21 7 -30 15
-13 14 -16 13 -24 -2 -9 -15 -11 -15 -25 -1 -8 8 -17 25 -19 38 -1 13 -9 26
-17 28 -10 3 -12 -1 -9 -14 13 -47 13 -49 -7 -46 -19 4 -19 3 3 -20 22 -24 31
-55 12 -43 -18 11 -70 -6 -70 -22 0 -8 -6 -13 -12 -10 -20 6 -10 99 12 114 24
17 32 50 13 57 -25 10 -33 7 -33 -13z m150 -161 c0 -5 -4 -10 -10 -10 -5 0
-10 5 -10 10 0 6 5 10 10 10 6 0 10 -4 10 -10z m-26 -27 c5 -11 2 -13 -10 -9
-8 3 -22 6 -30 6 -12 0 -12 2 -2 14 15 16 34 11 42 -11z m-67 -48 c0 -8 -6
-16 -13 -19 -19 -7 -29 14 -13 25 20 12 26 11 26 -6z m50 -144 c7 -10 9 -21 6
-25 -9 -9 -43 14 -43 29 0 21 23 19 37 -4z m-80 -26 c-4 -8 -11 -15 -17 -15
-6 0 -6 7 2 20 14 22 24 19 15 -5z"/>
<path d="M9696 4932 c-3 -5 1 -15 8 -21 11 -10 14 -9 12 3 -3 21 -13 29 -20
18z"/>
<path d="M9684 4877 c1 -24 4 -27 29 -23 30 5 50 16 28 16 -7 0 -9 5 -5 11 5
8 -1 10 -19 7 -15 -3 -28 0 -30 6 -3 6 -4 -1 -3 -17z"/>
<path d="M9130 4880 c0 -5 5 -10 10 -10 6 0 10 5 10 10 0 6 -4 10 -10 10 -5 0
-10 -4 -10 -10z"/>
<path d="M9665 4690 c3 -5 8 -10 11 -10 2 0 4 5 4 10 0 6 -5 10 -11 10 -5 0
-7 -4 -4 -10z"/>
<path d="M9710 4690 c0 -5 5 -10 10 -10 6 0 10 5 10 10 0 6 -4 10 -10 10 -5 0
-10 -4 -10 -10z"/>
<path d="M9556 4585 c-3 -8 -1 -15 4 -15 6 0 10 7 10 15 0 8 -2 15 -4 15 -2 0
-6 -7 -10 -15z"/>
<path d="M9030 4426 c0 -2 7 -6 15 -10 8 -3 15 -1 15 4 0 6 -7 10 -15 10 -8 0
-15 -2 -15 -4z"/>
<path d="M9612 4423 c-6 -2 -10 -9 -7 -13 7 -11 35 -2 35 11 0 10 -8 10 -28 2z"/>
<path d="M8986 4383 c-13 -26 -13 -30 0 -30 8 0 13 6 10 12 -2 7 1 18 7 24 6
6 8 13 5 17 -4 3 -13 -7 -22 -23z"/>
<path d="M9295 4401 c-3 -5 -1 -12 5 -16 5 -3 10 1 10 9 0 18 -6 21 -15 7z"/>
<path d="M9046 4385 c-3 -9 0 -15 9 -15 8 0 15 7 15 15 0 8 -4 15 -9 15 -5 0
-11 -7 -15 -15z"/>
<path d="M9200 4389 c0 -5 5 -7 10 -4 6 3 10 8 10 11 0 2 -4 4 -10 4 -5 0 -10
-5 -10 -11z"/>
<path d="M9120 4364 c0 -8 5 -12 10 -9 6 4 8 11 5 16 -9 14 -15 11 -15 -7z"/>
<path d="M9200 4360 c0 -5 5 -10 10 -10 6 0 10 5 10 10 0 6 -4 10 -10 10 -5 0
-10 -4 -10 -10z"/>
<path d="M9550 4299 c0 -5 5 -7 10 -4 6 3 10 8 10 11 0 2 -4 4 -10 4 -5 0 -10
-5 -10 -11z"/>
<path d="M6962 5021 c-11 -7 -11 -9 1 -14 9 -3 18 1 21 9 6 16 -2 18 -22 5z"/>
<path d="M7070 4984 c0 -17 22 -14 28 4 2 7 -3 12 -12 12 -9 0 -16 -7 -16 -16z"/>
<path d="M6870 4979 c0 -5 5 -7 10 -4 6 3 10 8 10 11 0 2 -4 4 -10 4 -5 0 -10
-5 -10 -11z"/>
<path d="M7036 4941 c-5 -7 -3 -18 3 -24 14 -14 20 -6 11 17 -5 15 -9 16 -14
7z"/>
<path d="M7225 4850 c3 -5 14 -10 23 -10 15 0 15 2 2 10 -20 13 -33 13 -25 0z"/>
<path d="M7120 4825 c0 -2 9 -21 20 -41 12 -20 18 -39 15 -42 -11 -11 29 -42
55 -42 15 0 29 -3 32 -6 7 -6 -21 -66 -36 -76 -7 -5 -7 -8 2 -8 7 0 18 5 25
10 7 6 20 16 30 23 18 13 18 14 -3 50 -12 20 -27 37 -33 37 -7 0 -25 12 -41
26 -21 18 -27 31 -23 49 3 21 0 25 -19 25 -13 0 -24 -2 -24 -5z"/>
<path d="M6910 4806 c0 -2 7 -6 15 -10 8 -3 15 -1 15 4 0 6 -7 10 -15 10 -8 0
-15 -2 -15 -4z"/>
<path d="M7285 4787 c-6 -13 -14 -17 -30 -13 -20 5 -35 -8 -35 -30 0 -9 39 -4
45 6 10 16 44 11 67 -10 22 -20 48 -27 48 -12 0 5 -18 18 -39 30 -22 12 -42
28 -44 35 -3 8 -7 6 -12 -6z"/>
<path d="M7016 4771 c-19 -21 -12 -28 13 -12 7 5 12 14 9 21 -2 7 -10 4 -22
-9z"/>
<path d="M7037 4728 c-18 -19 -22 -35 -18 -78 l2 -25 14 25 c8 14 12 33 9 43
-3 10 0 25 7 33 18 22 7 24 -14 2z"/>
<path d="M7148 4670 c-5 -33 6 -28 17 8 3 12 2 22 -3 22 -5 0 -12 -14 -14 -30z"/>
<path d="M7343 4688 c-18 -24 -24 -38 -16 -38 11 1 46 50 35 50 -5 0 -14 -6
-19 -12z"/>
<path d="M7400 4671 c0 -5 5 -13 10 -16 6 -3 10 -2 10 4 0 5 -4 13 -10 16 -5
3 -10 2 -10 -4z"/>
<path d="M6840 4640 c0 -5 5 -10 10 -10 6 0 10 5 10 10 0 6 -4 10 -10 10 -5 0
-10 -4 -10 -10z"/>
<path d="M7400 4615 c0 -8 4 -15 9 -15 5 0 11 7 15 15 3 9 0 15 -9 15 -8 0
-15 -7 -15 -15z"/>
<path d="M7286 4608 c-5 -10 -16 -18 -26 -18 -11 0 -22 -5 -26 -12 -5 -8 0 -9
15 -5 12 3 28 -1 36 -10 8 -8 20 -11 26 -8 6 4 19 -2 30 -14 20 -21 56 -30 44
-11 -3 6 3 10 14 10 33 0 31 15 -2 17 -75 5 -96 14 -100 42 -3 22 -5 23 -11 9z"/>
<path d="M6860 4580 c0 -11 5 -20 10 -20 6 0 10 9 10 20 0 11 -4 20 -10 20 -5
0 -10 -9 -10 -20z"/>
<path d="M6826 4561 c-10 -15 5 -43 20 -37 8 3 11 0 7 -10 -3 -9 1 -14 13 -14
14 0 16 2 6 9 -8 4 -13 11 -12 15 8 28 -21 59 -34 37z"/>
<path d="M6963 4563 c4 -3 -1 -12 -11 -20 -15 -13 -15 -13 6 -3 19 9 23 30 5
30 -4 0 -3 -3 0 -7z"/>
<path d="M7296 4526 c3 -9 9 -16 13 -17 3 0 16 -2 29 -5 12 -2 22 1 22 7 0 5
-4 7 -10 4 -5 -3 -10 -1 -10 5 0 6 -5 8 -10 5 -6 -4 -18 -1 -26 6 -12 10 -13
9 -8 -5z"/>
<path d="M7367 4134 c-11 -11 3 -24 18 -18 8 4 12 10 9 15 -6 11 -18 12 -27 3z"/>
<path d="M7325 4120 c3 -5 10 -10 16 -10 5 0 9 5 9 10 0 6 -7 10 -16 10 -8 0
-12 -4 -9 -10z"/>
<path d="M7616 4117 c3 -10 9 -15 12 -12 3 3 0 11 -7 18 -10 9 -11 8 -5 -6z"/>
<path d="M7303 4099 c-15 -20 -2 -51 16 -39 11 6 12 14 5 30 -8 18 -12 20 -21
9z"/>
<path d="M7593 4088 c2 -12 10 -24 17 -26 9 -3 11 1 7 12 -4 10 -7 22 -7 27 0
5 -4 9 -10 9 -5 0 -8 -10 -7 -22z"/>
<path d="M7211 4086 c-7 -8 -8 -17 -3 -20 6 -3 13 1 16 10 9 23 2 28 -13 10z"/>
<path d="M7340 4080 c0 -6 6 -19 12 -30 10 -16 10 -24 0 -41 -13 -21 -7 -43 6
-23 4 6 15 13 25 17 23 8 22 28 -4 61 -21 27 -39 34 -39 16z"/>
<path d="M7661 3999 c-1 -8 10 -25 24 -37 l25 -22 0 25 c0 18 -5 25 -19 25
-11 0 -22 6 -24 13 -4 8 -6 7 -6 -4z"/>
<path d="M7437 3950 c-18 -19 -23 -30 -14 -30 18 0 57 34 57 49 0 18 -13 12
-43 -19z"/>
<path d="M7755 3770 c-3 -5 1 -10 9 -10 9 0 16 5 16 10 0 6 -4 10 -9 10 -6 0
-13 -4 -16 -10z"/>
<path d="M7403 3680 c1 -11 7 -20 14 -20 11 0 11 5 3 20 -6 11 -13 20 -15 20
-2 0 -3 -9 -2 -20z"/>
<path d="M3830 4006 c0 -23 16 -27 17 -5 1 10 -2 19 -8 19 -5 0 -9 -6 -9 -14z"/>
<path d="M9014 5393 c5 -12 1 -14 -15 -10 -20 5 -20 5 -3 -14 21 -24 32 -24
30 -2 -1 16 8 19 47 14 6 -1 1 -8 -13 -16 -14 -8 -19 -14 -11 -15 7 0 11 -6 8
-14 -4 -10 -1 -13 9 -9 17 6 18 20 2 27 -7 2 5 3 27 0 34 -4 37 -3 20 7 -11 7
-22 16 -25 20 -3 4 -22 12 -43 17 -34 9 -38 9 -33 -5z"/>
<path d="M9498 5386 c-18 -13 -14 -26 7 -26 6 0 11 9 12 20 2 23 3 23 -19 6z"/>
<path d="M9620 5396 c0 -4 7 -14 15 -22 8 -9 15 -11 15 -6 0 5 -7 15 -15 22
-8 7 -15 9 -15 6z"/>
<path d="M9125 5380 c-3 -6 1 -7 9 -4 18 7 21 14 7 14 -6 0 -13 -4 -16 -10z"/>
<path d="M9155 5360 c3 -5 8 -10 11 -10 2 0 4 5 4 10 0 6 -5 10 -11 10 -5 0
-7 -4 -4 -10z"/>
<path d="M9665 5340 c-3 -6 1 -13 10 -16 13 -6 14 -8 3 -15 -10 -7 -9 -9 4 -9
9 0 18 6 21 13 3 9 9 9 24 0 16 -9 20 -8 20 3 0 8 -9 14 -19 14 -11 0 -28 5
-38 10 -13 7 -21 7 -25 0z"/>
<path d="M9137 5296 c-4 -10 -1 -13 8 -9 8 3 12 9 9 14 -7 12 -11 11 -17 -5z"/>
<path d="M9970 5250 c0 -5 5 -10 10 -10 6 0 10 5 10 10 0 6 -4 10 -10 10 -5 0
-10 -4 -10 -10z"/>
<path d="M10035 5169 c-11 -17 1 -21 15 -4 8 9 8 15 2 15 -6 0 -14 -5 -17 -11z"/>
<path d="M10198 5063 c7 -3 16 -2 19 1 4 3 -2 6 -13 5 -11 0 -14 -3 -6 -6z"/>
<path d="M6380 5036 c0 -2 7 -9 15 -16 12 -10 15 -10 15 4 0 9 -7 16 -15 16
-8 0 -15 -2 -15 -4z"/>
<path d="M10116 4954 c-21 -21 -20 -22 9 -16 15 2 25 0 25 -7 0 -16 11 -13 40
9 23 18 23 19 4 14 -12 -3 -31 -1 -42 5 -16 9 -24 7 -36 -5z"/>
<path d="M6390 4895 c-14 -16 -8 -18 28 -8 18 4 20 8 10 14 -18 12 -24 11 -38
-6z"/>
<path d="M6450 4879 c0 -5 5 -7 10 -4 6 3 10 8 10 11 0 2 -4 4 -10 4 -5 0 -10
-5 -10 -11z"/>
<path d="M3770 4771 c0 -6 4 -12 8 -15 5 -3 9 1 9 9 0 8 -4 15 -9 15 -4 0 -8
-4 -8 -9z"/>
<path d="M3828 4754 c-16 -8 -28 -17 -28 -21 0 -3 3 -3 6 0 4 3 15 2 25 -3 11
-6 20 -6 24 -1 3 6 14 8 25 6 12 -2 18 0 15 6 -4 5 -10 7 -15 4 -5 -3 -12 1
-17 9 -7 12 -12 12 -35 0z"/>
<path d="M3821 4704 c0 -11 3 -14 6 -6 3 7 2 16 -1 19 -3 4 -6 -2 -5 -13z"/>
<path d="M10256 4602 c-2 -4 -1 -14 5 -22 7 -12 9 -10 9 8 0 23 -5 28 -14 14z"/>
<path d="M10269 4554 c-12 -14 -11 -16 5 -13 11 2 21 10 24 17 5 17 -13 15
-29 -4z"/>
<path d="M3705 4510 c3 -5 8 -10 11 -10 2 0 4 5 4 10 0 6 -5 10 -11 10 -5 0
-7 -4 -4 -10z"/>
<path d="M10203 4433 c-15 -5 -17 -23 -4 -23 5 0 11 7 15 15 3 8 4 15 3 14 -1
0 -8 -3 -14 -6z"/>
<path d="M8530 4410 c0 -5 5 -10 10 -10 6 0 10 5 10 10 0 6 -4 10 -10 10 -5 0
-10 -4 -10 -10z"/>
<path d="M3677 4390 c3 -11 7 -20 9 -20 2 0 4 9 4 20 0 11 -4 20 -9 20 -5 0
-7 -9 -4 -20z"/>
<path d="M10015 4310 c10 -11 23 -20 28 -20 6 0 2 9 -8 20 -10 11 -23 20 -28
20 -6 0 -2 -9 8 -20z"/>
<path d="M10025 4270 c-3 -6 3 -10 14 -10 12 0 21 -6 21 -12 0 -10 2 -10 9 0
4 8 12 13 17 12 5 -1 10 2 11 7 4 12 -65 15 -72 3z"/>
<path d="M8005 4240 c-3 -6 1 -7 9 -4 18 7 21 14 7 14 -6 0 -13 -4 -16 -10z"/>
<path d="M8195 4204 c-16 -25 -16 -26 2 -22 10 2 18 12 19 26 2 28 0 28 -21
-4z"/>
<path d="M10014 4188 c-4 -5 1 -17 10 -26 15 -15 16 -15 16 2 0 13 5 16 18 11
13 -5 14 -4 5 6 -16 16 -41 20 -49 7z"/>
<path d="M3813 4175 c0 -8 4 -15 9 -15 4 0 8 7 8 15 0 8 -4 15 -8 15 -5 0 -9
-7 -9 -15z"/>
<path d="M3737 4093 c-4 -3 -7 -13 -7 -22 1 -13 3 -13 11 2 11 19 8 33 -4 20z"/>
<path d="M8250 4059 c0 -5 5 -7 10 -4 6 3 10 8 10 11 0 2 -4 4 -10 4 -5 0 -10
-5 -10 -11z"/>
<path d="M6070 4046 c0 -9 30 -14 35 -6 4 6 -3 10 -14 10 -12 0 -21 -2 -21 -4z"/>
<path d="M9115 3999 c-4 -6 -4 -13 -1 -16 3 -4 6 -1 6 6 0 8 8 10 23 6 17 -5
19 -4 7 4 -19 14 -27 14 -35 0z"/>
<path d="M6040 3966 c0 -8 4 -17 9 -20 5 -4 7 3 4 14 -6 23 -13 26 -13 6z"/>
<path d="M8088 3966 c-25 -19 -22 -27 7 -22 14 3 25 0 25 -5 0 -5 9 -9 20 -9
11 0 20 5 20 10 0 6 -7 10 -16 10 -9 0 -22 7 -28 15 -9 12 -14 12 -28 1z"/>
<path d="M9575 3950 c-3 -5 1 -10 9 -10 9 0 16 5 16 10 0 6 -4 10 -9 10 -6 0
-13 -4 -16 -10z"/>
<path d="M3685 3940 c3 -5 12 -7 20 -3 21 7 19 13 -6 13 -11 0 -18 -4 -14 -10z"/>
<path d="M8180 3935 c0 -8 8 -15 18 -14 10 0 12 3 4 6 -6 2 -10 9 -6 14 3 5 0
9 -5 9 -6 0 -11 -7 -11 -15z"/>
<path d="M5942 3918 c5 -15 28 -23 28 -10 0 5 -7 13 -16 16 -10 4 -14 1 -12
-6z"/>
<path d="M5910 3890 c0 -5 7 -10 16 -10 8 0 12 5 9 10 -3 6 -10 10 -16 10 -5
0 -9 -4 -9 -10z"/>
<path d="M8180 3890 c-8 -5 -11 -12 -7 -16 4 -4 13 -2 19 4 15 15 7 24 -12 12z"/>
<path d="M8600 3835 c0 -8 5 -15 11 -15 8 0 7 -5 -1 -15 -10 -12 -15 -13 -21
-3 -4 6 -5 16 -2 22 3 5 1 6 -5 2 -20 -12 4 -43 34 -43 15 0 21 3 14 7 -8 5
-5 9 9 13 11 2 22 2 25 -1 9 -8 -15 -32 -33 -32 -14 -1 -14 -2 -1 -9 8 -5 28
-11 45 -15 29 -7 29 -7 11 13 -18 20 -18 21 -1 21 16 0 16 2 -4 19 -12 11 -22
22 -22 25 2 18 -1 19 -8 2 -7 -19 -8 -19 -29 2 -17 17 -22 18 -22 7z"/>
<path d="M8515 3829 c-4 -6 -5 -12 -2 -15 2 -3 7 2 10 11 7 17 1 20 -8 4z"/>
<path d="M3790 3820 c-12 -8 -10 -10 8 -10 13 0 20 4 17 10 -7 12 -6 12 -25 0z"/>
<path d="M8170 3809 c0 -5 5 -7 10 -4 6 3 10 8 10 11 0 2 -4 4 -10 4 -5 0 -10
-5 -10 -11z"/>
<path d="M8536 3801 c-3 -5 0 -11 7 -14 8 -3 14 1 14 9 0 16 -13 19 -21 5z"/>
<path d="M3820 3790 c0 -5 6 -10 14 -10 8 0 18 5 21 10 3 6 -3 10 -14 10 -12
0 -21 -4 -21 -10z"/>
<path d="M8200 3740 c0 -5 5 -10 11 -10 5 0 7 5 4 10 -3 6 -8 10 -11 10 -2 0
-4 -4 -4 -10z"/>
<path d="M8216 3712 c-3 -6 1 -13 10 -16 23 -9 28 -2 10 13 -8 7 -17 8 -20 3z"/>
<path d="M8530 3690 c0 -5 4 -10 9 -10 6 0 13 5 16 10 3 6 -1 10 -9 10 -9 0
-16 -4 -16 -10z"/>
<path d="M5898 3673 c6 -2 18 -2 25 0 6 3 1 5 -13 5 -14 0 -19 -2 -12 -5z"/>
<path d="M3870 3620 c-12 -8 -12 -10 3 -16 21 -8 35 2 21 16 -5 5 -15 6 -24 0z"/>
<path d="M8129 3600 c25 -22 41 -26 41 -10 0 11 -33 30 -52 30 -7 -1 -3 -9 11
-20z"/>
<path d="M4060 3530 c0 -5 7 -10 16 -10 8 0 12 5 9 10 -3 6 -10 10 -16 10 -5
0 -9 -4 -9 -10z"/>
<path d="M8061 3523 c-1 -14 5 -23 14 -23 8 0 15 -7 15 -15 0 -8 4 -15 8 -15
17 0 8 33 -9 37 -10 3 -20 12 -22 22 -3 11 -5 9 -6 -6z"/>
<path d="M8540 3510 c-9 -6 -10 -10 -3 -10 6 0 15 5 18 10 8 12 4 12 -15 0z"/>
<path d="M4016 3495 c4 -8 16 -15 27 -15 20 0 20 0 1 15 -25 19 -35 19 -28 0z"/>
<path d="M8176 3502 c-2 -4 4 -8 15 -8 10 0 19 4 19 8 0 4 -6 8 -14 8 -8 0
-17 -4 -20 -8z"/>
<path d="M8053 3478 c1 -8 -7 -12 -23 -10 -25 4 -25 3 -5 -13 19 -16 19 -16
-10 -11 -23 5 -26 4 -13 -4 9 -5 34 -11 56 -13 33 -3 38 -1 32 12 -5 9 -11 24
-14 34 -6 19 -27 24 -23 5z"/>
<path d="M5770 3466 c0 -8 5 -18 10 -21 6 -3 10 3 10 14 0 12 -4 21 -10 21 -5
0 -10 -6 -10 -14z"/>
<path d="M4130 3409 c0 -5 5 -7 10 -4 6 3 10 8 10 11 0 2 -4 4 -10 4 -5 0 -10
-5 -10 -11z"/>
<path d="M5686 3411 c-4 -7 -5 -15 -2 -18 9 -9 19 4 14 18 -4 11 -6 11 -12 0z"/>
<path d="M8536 3401 c-4 -5 3 -7 14 -4 23 6 26 13 6 13 -8 0 -17 -4 -20 -9z"/>
<path d="M8080 3389 c0 -5 5 -7 10 -4 6 3 10 8 10 11 0 2 -4 4 -10 4 -5 0 -10
-5 -10 -11z"/>
<path d="M4120 3380 c0 -5 5 -10 10 -10 6 0 10 5 10 10 0 6 -4 10 -10 10 -5 0
-10 -4 -10 -10z"/>
<path d="M5660 3353 c0 -22 2 -25 10 -13 13 20 13 40 0 40 -5 0 -10 -12 -10
-27z"/>
<path d="M4230 3320 c0 -4 -11 -12 -25 -18 -14 -6 -25 -18 -25 -27 0 -18 9
-19 30 -4 12 9 11 10 -5 5 l-20 -6 20 15 c59 42 59 42 41 42 -9 0 -16 -3 -16
-7z"/>
<path d="M8990 3321 c0 -5 6 -14 14 -20 10 -9 15 -8 19 3 3 8 3 17 0 20 -9 9
-33 7 -33 -3z"/>
<path d="M5356 3224 c-9 -8 -16 -18 -16 -22 0 -3 5 -1 11 5 6 6 18 9 25 6 10
-4 12 0 8 11 -8 20 -9 20 -28 0z"/>
<path d="M8560 3230 c0 -5 4 -10 9 -10 6 0 13 5 16 10 3 6 -1 10 -9 10 -9 0
-16 -4 -16 -10z"/>
<path d="M8961 3223 c-15 -16 -10 -26 12 -21 9 2 12 9 8 19 -5 15 -8 15 -20 2z"/>
<path d="M4460 3199 c0 -5 5 -7 10 -4 6 3 10 8 10 11 0 2 -4 4 -10 4 -5 0 -10
-5 -10 -11z"/>
<path d="M5445 3200 c3 -5 8 -10 11 -10 2 0 4 5 4 10 0 6 -5 10 -11 10 -5 0
-7 -4 -4 -10z"/>
<path d="M4570 3165 c-8 -9 -8 -15 -2 -15 12 0 26 19 19 26 -2 2 -10 -2 -17
-11z"/>
<path d="M4936 3125 c4 -8 10 -15 15 -15 4 0 6 7 3 15 -4 8 -10 15 -15 15 -4
0 -6 -7 -3 -15z"/>
</g>
</svg>
